<svg width="170" height="22" viewBox="0 0 170 22" fill="none" xmlns="http://www.w3.org/2000/svg">
<path d="M2.11364 0.545454H4.63636L10.5682 15.0341H10.7727L16.7045 0.545454H19.2273V18H17.25V4.73864H17.0795L11.625 18H9.71591L4.26136 4.73864H4.09091V18H2.11364V0.545454ZM28.5107 18.2727C27.3288 18.2727 26.2919 17.9915 25.3999 17.429C24.5135 16.8665 23.8203 16.0795 23.3203 15.0682C22.826 14.0568 22.5788 12.875 22.5788 11.5227C22.5788 10.1591 22.826 8.96875 23.3203 7.9517C23.8203 6.93466 24.5135 6.14489 25.3999 5.58239C26.2919 5.01989 27.3288 4.73864 28.5107 4.73864C29.6925 4.73864 30.7266 5.01989 31.6129 5.58239C32.505 6.14489 33.1982 6.93466 33.6925 7.9517C34.1925 8.96875 34.4425 10.1591 34.4425 11.5227C34.4425 12.875 34.1925 14.0568 33.6925 15.0682C33.1982 16.0795 32.505 16.8665 31.6129 17.429C30.7266 17.9915 29.6925 18.2727 28.5107 18.2727ZM28.5107 16.4659C29.4084 16.4659 30.147 16.2358 30.7266 15.7756C31.3061 15.3153 31.7351 14.7102 32.0135 13.9602C32.2919 13.2102 32.4311 12.3977 32.4311 11.5227C32.4311 10.6477 32.2919 9.83239 32.0135 9.0767C31.7351 8.32102 31.3061 7.71023 30.7266 7.24432C30.147 6.77841 29.4084 6.54545 28.5107 6.54545C27.6129 6.54545 26.8743 6.77841 26.2947 7.24432C25.7152 7.71023 25.2862 8.32102 25.0078 9.0767C24.7294 9.83239 24.5902 10.6477 24.5902 11.5227C24.5902 12.3977 24.7294 13.2102 25.0078 13.9602C25.2862 14.7102 25.7152 15.3153 26.2947 15.7756C26.8743 16.2358 27.6129 16.4659 28.5107 16.4659ZM37.7855 18V0.545454H39.7969V6.98864H39.9673C40.1151 6.76136 40.3196 6.47159 40.581 6.11932C40.848 5.76136 41.2287 5.44318 41.723 5.16477C42.223 4.88068 42.8991 4.73864 43.7514 4.73864C44.8537 4.73864 45.8253 5.0142 46.6662 5.56534C47.5071 6.11648 48.1634 6.89773 48.6349 7.90909C49.1065 8.92045 49.3423 10.1136 49.3423 11.4886C49.3423 12.875 49.1065 14.0767 48.6349 15.0938C48.1634 16.1051 47.5099 16.8892 46.6747 17.446C45.8395 17.9972 44.8764 18.2727 43.7855 18.2727C42.9446 18.2727 42.2713 18.1335 41.7656 17.8551C41.2599 17.571 40.8707 17.25 40.598 16.892C40.3253 16.5284 40.1151 16.2273 39.9673 15.9886H39.7287V18H37.7855ZM39.7628 11.4545C39.7628 12.4432 39.9077 13.3153 40.1974 14.071C40.4872 14.821 40.9105 15.4091 41.4673 15.8352C42.0241 16.2557 42.706 16.4659 43.5128 16.4659C44.3537 16.4659 45.0554 16.2443 45.6179 15.8011C46.1861 15.3523 46.6122 14.75 46.8963 13.9943C47.1861 13.233 47.331 12.3864 47.331 11.4545C47.331 10.5341 47.1889 9.70455 46.9048 8.96591C46.6264 8.22159 46.2031 7.63352 45.6349 7.2017C45.0724 6.7642 44.3651 6.54545 43.5128 6.54545C42.6946 6.54545 42.0071 6.75284 41.4503 7.16761C40.8935 7.5767 40.473 8.15057 40.1889 8.8892C39.9048 9.62216 39.7628 10.4773 39.7628 11.4545ZM52.419 18V4.90909H54.4304V18H52.419ZM53.4418 2.72727C53.0497 2.72727 52.7116 2.59375 52.4276 2.3267C52.1491 2.05966 52.0099 1.73864 52.0099 1.36364C52.0099 0.988636 52.1491 0.667614 52.4276 0.400568C52.7116 0.133523 53.0497 0 53.4418 0C53.8338 0 54.169 0.133523 54.4474 0.400568C54.7315 0.667614 54.8736 0.988636 54.8736 1.36364C54.8736 1.73864 54.7315 2.05966 54.4474 2.3267C54.169 2.59375 53.8338 2.72727 53.4418 2.72727ZM60.1257 0.545454V18H58.1143V0.545454H60.1257ZM69.2983 18.2727C68.0369 18.2727 66.9489 17.9943 66.0341 17.4375C65.125 16.875 64.4233 16.0909 63.929 15.0852C63.4403 14.0739 63.196 12.8977 63.196 11.5568C63.196 10.2159 63.4403 9.03409 63.929 8.01136C64.4233 6.98295 65.1108 6.18182 65.9915 5.60795C66.8778 5.02841 67.9119 4.73864 69.0938 4.73864C69.7756 4.73864 70.4489 4.85227 71.1136 5.07954C71.7784 5.30682 72.3835 5.67614 72.929 6.1875C73.4744 6.69318 73.9091 7.36364 74.233 8.19886C74.5568 9.03409 74.7188 10.0625 74.7188 11.2841V12.1364H64.6278V10.3977H72.6733C72.6733 9.65909 72.5256 9 72.2301 8.42045C71.9403 7.84091 71.5256 7.38352 70.9858 7.0483C70.4517 6.71307 69.821 6.54545 69.0938 6.54545C68.2926 6.54545 67.5994 6.74432 67.0142 7.14205C66.4347 7.53409 65.9886 8.04545 65.6761 8.67614C65.3636 9.30682 65.2074 9.98295 65.2074 10.7045V11.8636C65.2074 12.8523 65.3778 13.6903 65.7188 14.3778C66.0653 15.0597 66.5455 15.5795 67.1591 15.9375C67.7727 16.2898 68.4858 16.4659 69.2983 16.4659C69.8267 16.4659 70.304 16.392 70.7301 16.2443C71.1619 16.0909 71.5341 15.8636 71.8466 15.5625C72.1591 15.2557 72.4006 14.875 72.571 14.4205L74.5142 14.9659C74.3097 15.625 73.9659 16.2045 73.483 16.7045C73 17.1989 72.4034 17.5852 71.6932 17.8636C70.983 18.1364 70.1847 18.2727 69.2983 18.2727Z" fill="#07A0C3"/>
<path d="M83.8466 2.42045V0.545454H96.9375V2.42045H91.4489V18H89.3352V2.42045H83.8466ZM98.5675 18V4.90909H100.511V6.88636H100.647C100.886 6.23864 101.317 5.71307 101.942 5.30966C102.567 4.90625 103.272 4.70454 104.056 4.70454C104.204 4.70454 104.388 4.70739 104.61 4.71307C104.832 4.71875 104.999 4.72727 105.113 4.73864V6.78409C105.045 6.76705 104.888 6.74148 104.644 6.70739C104.406 6.66761 104.153 6.64773 103.886 6.64773C103.249 6.64773 102.681 6.78125 102.181 7.0483C101.687 7.30966 101.295 7.6733 101.005 8.1392C100.721 8.59943 100.579 9.125 100.579 9.71591V18H98.5675ZM111.349 18.3068C110.52 18.3068 109.767 18.1506 109.091 17.8381C108.415 17.5199 107.878 17.0625 107.48 16.4659C107.082 15.8636 106.884 15.1364 106.884 14.2841C106.884 13.5341 107.031 12.9261 107.327 12.4602C107.622 11.9886 108.017 11.6193 108.511 11.3523C109.006 11.0852 109.551 10.8864 110.148 10.7557C110.75 10.6193 111.355 10.5114 111.963 10.4318C112.759 10.3295 113.403 10.2528 113.898 10.2017C114.398 10.1449 114.761 10.0511 114.989 9.92045C115.222 9.78977 115.338 9.5625 115.338 9.23864V9.17045C115.338 8.32955 115.108 7.67614 114.648 7.21023C114.193 6.74432 113.503 6.51136 112.577 6.51136C111.616 6.51136 110.864 6.72159 110.318 7.14205C109.773 7.5625 109.389 8.01136 109.168 8.48864L107.259 7.80682C107.599 7.01136 108.054 6.39205 108.622 5.94886C109.196 5.5 109.821 5.1875 110.497 5.01136C111.179 4.82955 111.849 4.73864 112.509 4.73864C112.929 4.73864 113.412 4.78977 113.957 4.89204C114.509 4.98864 115.04 5.19034 115.551 5.49716C116.068 5.80398 116.497 6.26705 116.838 6.88636C117.179 7.50568 117.349 8.33523 117.349 9.375V18H115.338V16.2273H115.236C115.099 16.5114 114.872 16.8153 114.554 17.1392C114.236 17.4631 113.813 17.7386 113.284 17.9659C112.756 18.1932 112.111 18.3068 111.349 18.3068ZM111.656 16.5C112.452 16.5 113.122 16.3438 113.668 16.0312C114.219 15.7188 114.634 15.3153 114.912 14.821C115.196 14.3267 115.338 13.8068 115.338 13.2614V11.4205C115.253 11.5227 115.065 11.6165 114.776 11.7017C114.491 11.7812 114.162 11.8523 113.787 11.9148C113.418 11.9716 113.057 12.0227 112.705 12.0682C112.358 12.108 112.077 12.142 111.861 12.1705C111.338 12.2386 110.849 12.3494 110.395 12.5028C109.946 12.6506 109.582 12.875 109.304 13.1761C109.031 13.4716 108.895 13.875 108.895 14.3864C108.895 15.0852 109.153 15.6136 109.67 15.9716C110.193 16.3239 110.855 16.5 111.656 16.5ZM126.339 18.2727C125.112 18.2727 124.055 17.983 123.168 17.4034C122.282 16.8239 121.6 16.0256 121.123 15.0085C120.646 13.9915 120.407 12.8295 120.407 11.5227C120.407 10.1932 120.651 9.01989 121.14 8.00284C121.634 6.98011 122.322 6.18182 123.202 5.60795C124.089 5.02841 125.123 4.73864 126.305 4.73864C127.225 4.73864 128.055 4.90909 128.793 5.25C129.532 5.59091 130.137 6.06818 130.609 6.68182C131.08 7.29545 131.373 8.01136 131.487 8.82955H129.475C129.322 8.23295 128.981 7.70455 128.452 7.24432C127.93 6.77841 127.225 6.54545 126.339 6.54545C125.555 6.54545 124.867 6.75 124.276 7.15909C123.691 7.5625 123.234 8.13352 122.904 8.87216C122.58 9.60511 122.418 10.4659 122.418 11.4545C122.418 12.4659 122.577 13.3466 122.896 14.0966C123.219 14.8466 123.674 15.429 124.259 15.8438C124.85 16.2585 125.543 16.4659 126.339 16.4659C126.862 16.4659 127.336 16.375 127.762 16.1932C128.188 16.0114 128.549 15.75 128.844 15.4091C129.14 15.0682 129.35 14.6591 129.475 14.1818H131.487C131.373 14.9545 131.092 15.6506 130.643 16.2699C130.2 16.8835 129.612 17.3722 128.879 17.7358C128.151 18.0938 127.305 18.2727 126.339 18.2727ZM136.302 13.2273L136.268 10.7386H136.677L142.404 4.90909H144.893L138.79 11.0795H138.62L136.302 13.2273ZM134.427 18V0.545454H136.438V18H134.427ZM142.745 18L137.631 11.5227L139.063 10.125L145.302 18H142.745ZM152.431 18.2727C151.17 18.2727 150.082 17.9943 149.167 17.4375C148.258 16.875 147.556 16.0909 147.062 15.0852C146.573 14.0739 146.329 12.8977 146.329 11.5568C146.329 10.2159 146.573 9.03409 147.062 8.01136C147.556 6.98295 148.244 6.18182 149.124 5.60795C150.011 5.02841 151.045 4.73864 152.227 4.73864C152.908 4.73864 153.582 4.85227 154.246 5.07954C154.911 5.30682 155.516 5.67614 156.062 6.1875C156.607 6.69318 157.042 7.36364 157.366 8.19886C157.69 9.03409 157.852 10.0625 157.852 11.2841V12.1364H147.761V10.3977H155.806C155.806 9.65909 155.658 9 155.363 8.42045C155.073 7.84091 154.658 7.38352 154.119 7.0483C153.585 6.71307 152.954 6.54545 152.227 6.54545C151.425 6.54545 150.732 6.74432 150.147 7.14205C149.567 7.53409 149.121 8.04545 148.809 8.67614C148.496 9.30682 148.34 9.98295 148.34 10.7045V11.8636C148.34 12.8523 148.511 13.6903 148.852 14.3778C149.198 15.0597 149.678 15.5795 150.292 15.9375C150.906 16.2898 151.619 16.4659 152.431 16.4659C152.96 16.4659 153.437 16.392 153.863 16.2443C154.295 16.0909 154.667 15.8636 154.979 15.5625C155.292 15.2557 155.533 14.875 155.704 14.4205L157.647 14.9659C157.442 15.625 157.099 16.2045 156.616 16.7045C156.133 17.1989 155.536 17.5852 154.826 17.8636C154.116 18.1364 153.317 18.2727 152.431 18.2727ZM160.911 18V4.90909H162.854V6.88636H162.991C163.229 6.23864 163.661 5.71307 164.286 5.30966C164.911 4.90625 165.616 4.70454 166.4 4.70454C166.548 4.70454 166.732 4.70739 166.954 4.71307C167.175 4.71875 167.343 4.72727 167.457 4.73864V6.78409C167.388 6.76705 167.232 6.74148 166.988 6.70739C166.749 6.66761 166.496 6.64773 166.229 6.64773C165.593 6.64773 165.025 6.78125 164.525 7.0483C164.031 7.30966 163.638 7.6733 163.349 8.1392C163.065 8.59943 162.923 9.125 162.923 9.71591V18H160.911Z" fill="#1C3A41"/>
</svg>
