<svg width="134" height="64" viewBox="0 0 134 64" fill="none" xmlns="http://www.w3.org/2000/svg">
<g clip-path="url(#clip0_44_389)">
<path d="M32.2115 7.35852L55.6849 18.9604L48.5446 22.5186L32.2115 7.35852Z" fill="#1C3A41"/>
<path d="M100.831 0L58.5416 31.8582L50.8831 24.774L100.831 0Z" fill="#07A0C3"/>
<path d="M88.0076 62.2713C87.4999 62.6111 86.8544 62.9288 86.0712 63.2243C85.3023 63.5051 84.4611 63.6454 83.5473 63.6454C81.9373 63.6454 80.5158 63.2834 79.2829 62.5594C78.0645 61.8353 77.1217 60.8601 76.4544 59.6336C75.8017 58.4072 75.4754 57.0552 75.4754 55.5775C75.4754 53.9964 75.809 52.5779 76.4762 51.3219C77.1434 50.0512 78.0645 49.0611 79.2394 48.3518C80.4287 47.6278 81.7705 47.2658 83.2644 47.2658C84.1493 47.2658 84.976 47.3839 85.7447 47.6204C86.5136 47.8568 87.2025 48.1672 87.8117 48.5513L86.9632 50.5683C85.7593 49.7408 84.5481 49.327 83.3298 49.327C82.3144 49.327 81.3716 49.6005 80.5013 50.1472C79.6455 50.694 78.9565 51.4402 78.4344 52.3858C77.9267 53.3167 77.6729 54.3437 77.6729 55.4667C77.6729 56.6192 77.905 57.661 78.3691 58.5919C78.8477 59.5228 79.5222 60.2543 80.3925 60.7862C81.2773 61.3034 82.2926 61.562 83.4385 61.562C84.8454 61.562 86.0712 61.1556 87.1154 60.3429L88.0076 62.2713Z" fill="#1C3A41"/>
<path d="M93.6139 47.4431V61.3846H101.62V63.4682H91.503V47.4431H93.6139Z" fill="#1C3A41"/>
<path d="M113.301 59.2568H107.252L105.576 63.4681H103.488L110.363 46.7781H110.494L117.369 63.4681H114.932L113.301 59.2568ZM112.582 57.395L110.342 51.5435L108.013 57.395H112.582Z" fill="#1C3A41"/>
<path d="M134 47.4431V64H133.935L122.382 52.0533L122.425 63.4681H120.293V46.9555H120.402L131.933 59.0351L131.889 47.4431H134Z" fill="#1C3A41"/>
<path d="M15.5681 47.443V63.9999H15.5029L3.9498 52.0532L3.99331 63.468H1.86111V46.9553H1.9699L13.5012 59.0351L13.4577 47.443H15.5681Z" fill="#07A0C3"/>
<path d="M19.1121 55.4666C19.1121 54.0037 19.4748 52.6443 20.2 51.3883C20.9252 50.1323 21.8971 49.1349 23.1155 48.3961C24.3484 47.6425 25.69 47.2657 27.1405 47.2657C28.5765 47.2657 29.9109 47.6425 31.1438 48.3961C32.3767 49.1349 33.3558 50.1323 34.081 51.3883C34.8208 52.6443 35.1906 54.0037 35.1906 55.4666C35.1906 56.9443 34.8281 58.3111 34.1028 59.5671C33.3775 60.823 32.3912 61.8205 31.1438 62.5593C29.9109 63.2833 28.5765 63.6453 27.1405 63.6453C25.69 63.6453 24.3484 63.2833 23.1155 62.5593C21.8826 61.8353 20.9034 60.8526 20.1783 59.6114C19.4675 58.3554 19.1121 56.9738 19.1121 55.4666ZM21.2879 55.4888C21.2879 56.5822 21.549 57.5944 22.0711 58.5253C22.5932 59.4562 23.304 60.1951 24.2033 60.7418C25.1171 61.2885 26.1106 61.5619 27.184 61.5619C28.2573 61.5619 29.2365 61.2959 30.1212 60.764C31.0205 60.2173 31.724 59.4784 32.2317 58.5475C32.7539 57.6018 33.0149 56.5748 33.0149 55.4666C33.0149 54.3584 32.7539 53.3314 32.2317 52.3857C31.7095 51.44 30.9988 50.6938 30.0995 50.1471C29.2002 49.6004 28.2139 49.327 27.1405 49.327C26.0672 49.327 25.0809 49.6077 24.1815 50.1693C23.2822 50.7159 22.5716 51.4622 22.0493 52.4079C21.5417 53.3536 21.2879 54.3806 21.2879 55.4888Z" fill="#07A0C3"/>
<path d="M47.4056 63.468L43.7069 57.55C43.5908 57.5649 43.4167 57.5722 43.1848 57.5722H40.8567V63.468H38.7463V47.443H42.9454C44.0187 47.443 44.9761 47.6351 45.8173 48.0193C46.6586 48.4035 47.3186 48.9724 47.7972 49.726C48.2759 50.4648 48.5152 51.3587 48.5152 52.4079C48.5152 53.3979 48.2976 54.3066 47.8625 55.1342C47.4419 55.9616 46.7892 56.5896 45.9043 57.0181L49.8642 63.468H47.4056ZM43.1412 55.4888C44.2726 55.4888 45.0849 55.1858 45.578 54.58C46.0857 53.9742 46.3395 53.2797 46.3395 52.4965C46.3395 52.0237 46.2307 51.5582 46.0132 51.1001C45.81 50.6421 45.4764 50.2653 45.0123 49.9697C44.5626 49.6595 43.9897 49.5043 43.2935 49.5043H40.8567V55.4888H43.1412Z" fill="#07A0C3"/>
<path d="M53.1093 47.443H57.4172C59.3754 47.443 60.9927 47.842 62.2691 48.6399C63.56 49.423 64.4956 50.4426 65.0758 51.6986C65.6705 52.9398 65.9678 54.255 65.9678 55.6439C65.9678 57.1954 65.6124 58.5697 64.9017 59.7666C64.191 60.9486 63.2409 61.8647 62.0516 62.5149C60.8621 63.1503 59.5712 63.468 58.1788 63.468H53.1093V47.443ZM57.7653 61.3846C58.9258 61.3846 59.9629 61.1555 60.8767 60.6974C61.7905 60.2246 62.5012 59.5449 63.0088 58.6583C63.531 57.7717 63.7921 56.7152 63.7921 55.4888C63.7921 54.2328 63.5238 53.1541 62.9871 52.2527C62.4504 51.3514 61.7324 50.6716 60.8331 50.2136C59.9483 49.7407 58.9911 49.5043 57.9612 49.5043H55.2198V61.3846H57.7653Z" fill="#07A0C3"/>
</g>
<defs>
<clipPath id="clip0_44_389">
<rect width="134" height="64" fill="white"/>
</clipPath>
</defs>
</svg>
